<svg id="Ebene_1" data-name="Ebene 1" xmlns="http://www.w3.org/2000/svg" width="148.77mm" height="66.05mm" viewBox="0 0 421.71 187.23"><defs><style>.cls-1{fill:#951b81;}.cls-2{fill:#734293;}.cls-3{fill:#008ed5;}.cls-4{fill:#009cbc;}.cls-5{fill:#009a93;}.cls-6{fill:#4359a5;}.cls-7{fill:#005ca9;}.cls-8{fill:#009767;}</style></defs><title>balgrist_u-klinik_de_rgb</title><path d="M8.15,153v20c0,7.5,3.35,10.7,7.85,10.7,4.95,0,8.2-3.3,8.2-10.7V153h4.4v19.7c0,10.35-5.45,14.55-12.75,14.55-6.9,0-12.1-3.9-12.1-14.4V153Z" transform="translate(-1.98)"/><path d="M36.5,169c0-2.55,0-4.55-.2-6.55h3.9l.25,4h.1a9,9,0,0,1,8-4.5c3.35,0,8.55,2,8.55,10.3v14.45H52.7v-14c0-3.9-1.45-7.2-5.6-7.2a6.35,6.35,0,0,0-5.9,4.5,6.54,6.54,0,0,0-.3,2.05v14.6H36.5Z" transform="translate(-1.98)"/><path d="M66.85,158.38a2.62,2.62,0,0,1-2.65-2.7,2.73,2.73,0,1,1,2.7,2.7Zm-2.1,28.3v-24.2h4.4v24.2Z" transform="translate(-1.98)"/><path d="M78.65,162.48,83.4,176c.8,2.25,1.45,4.25,1.95,6.25h.15c.55-2,1.25-4,2-6.25l4.7-13.55h4.6l-9.5,24.2h-4.2L74,162.48Z" transform="translate(-1.98)"/><path d="M103.5,175.38c.1,5.9,3.85,8.35,8.25,8.35a15.74,15.74,0,0,0,6.7-1.25l.8,3.15a19.71,19.71,0,0,1-8.1,1.55c-7.4,0-11.9-5-11.9-12.2s4.35-13,11.4-13c7.9,0,9.95,6.95,9.95,11.4a10.73,10.73,0,0,1-.15,2Zm12.85-3.15c.05-2.8-1.15-7.15-6-7.15-4.5,0-6.4,4.1-6.75,7.15Z" transform="translate(-1.98)"/><path d="M126.55,170c0-2.85,0-5.3-.2-7.55h3.85l.2,4.75h.15a7.32,7.32,0,0,1,6.75-5.3,9,9,0,0,1,1.2.1v4.15a12.53,12.53,0,0,0-1.5-.1c-3.1,0-5.3,2.35-5.9,5.6a13.64,13.64,0,0,0-.15,2v13h-4.4Z" transform="translate(-1.98)"/><path d="M142.8,182.18a12.43,12.43,0,0,0,5.85,1.7c3.15,0,4.65-1.55,4.65-3.6s-1.25-3.2-4.45-4.4c-4.4-1.6-6.45-4-6.45-6.85,0-3.9,3.2-7.1,8.35-7.1a11.23,11.23,0,0,1,5.9,1.5l-1.05,3.15a9.91,9.91,0,0,0-4.95-1.4c-2.6,0-4,1.5-4,3.3,0,2,1.4,2.9,4.55,4.15,4.15,1.55,6.35,3.65,6.35,7.25,0,4.3-3.35,7.3-9,7.3a13.8,13.8,0,0,1-6.8-1.7Z" transform="translate(-1.98)"/><path d="M165.8,158.38a2.62,2.62,0,0,1-2.65-2.7,2.73,2.73,0,1,1,2.7,2.7Zm-2.1,28.3v-24.2h4.4v24.2Z" transform="translate(-1.98)"/><path d="M181.2,156.68v5.8h6.3v3.35h-6.3v13c0,3,.85,4.7,3.3,4.7a8.22,8.22,0,0,0,2.55-.3l.2,3.35a12,12,0,0,1-3.9.6,6.28,6.28,0,0,1-4.75-1.85c-1.2-1.35-1.7-3.5-1.7-6.35V165.83h-3.75v-3.35h3.75V158Z" transform="translate(-1.98)"/><path d="M210,180.88a40.6,40.6,0,0,0,.35,5.8H206.4l-.4-3.05h-.15a8.94,8.94,0,0,1-7.4,3.6c-4.9,0-7.4-3.45-7.4-6.95,0-5.85,5.2-9.05,14.55-9v-.5c0-2-.55-5.65-5.5-5.6a11.66,11.66,0,0,0-6.35,1.8l-1-2.95a15.67,15.67,0,0,1,8-2.1c7.45,0,9.25,5,9.25,9.9Zm-13.35-22.7a2.55,2.55,0,0,1,.1-5.1,2.44,2.44,0,0,1,2.4,2.55,2.48,2.48,0,0,1-2.45,2.55Zm9,16.15c-4.8-.1-10.25.75-10.25,5.45a3.85,3.85,0,0,0,4.1,4.2,6.11,6.11,0,0,0,5.95-4,4.52,4.52,0,0,0,.2-1.4Zm.25-16.15a2.48,2.48,0,0,1-2.45-2.55,2.52,2.52,0,0,1,2.5-2.55,2.45,2.45,0,0,1,2.45,2.55,2.48,2.48,0,0,1-2.45,2.55Z" transform="translate(-1.98)"/><path d="M222.65,156.68v5.8H229v3.35h-6.3v13c0,3,.85,4.7,3.3,4.7a8.22,8.22,0,0,0,2.55-.3l.2,3.35a12,12,0,0,1-3.9.6,6.28,6.28,0,0,1-4.75-1.85c-1.2-1.35-1.7-3.5-1.7-6.35V165.83H214.6v-3.35h3.75V158Z" transform="translate(-1.98)"/><path d="M233.75,182.18a12.43,12.43,0,0,0,5.85,1.7c3.15,0,4.65-1.55,4.65-3.6s-1.25-3.2-4.45-4.4c-4.4-1.6-6.45-4-6.45-6.85,0-3.9,3.2-7.1,8.35-7.1a11.23,11.23,0,0,1,5.9,1.5l-1,3.15a9.91,9.91,0,0,0-5-1.4c-2.6,0-4,1.5-4,3.3,0,2,1.4,2.9,4.55,4.15,4.15,1.55,6.35,3.65,6.35,7.25,0,4.3-3.35,7.3-9,7.3a13.8,13.8,0,0,1-6.8-1.7Z" transform="translate(-1.98)"/><path d="M259.05,173.58h.1c.6-.85,1.4-1.9,2.1-2.75l7.15-8.35h5.25l-9.35,10L275,186.68H269.6l-8.3-11.6-2.25,2.5v9.1h-4.4v-35.5h4.4Z" transform="translate(-1.98)"/><path d="M279.4,151.18h4.4v35.5h-4.4Z" transform="translate(-1.98)"/><path d="M293.8,158.38a2.61,2.61,0,0,1-2.65-2.7,2.73,2.73,0,1,1,2.7,2.7Zm-2.11,28.3v-24.2h4.41v24.2Z" transform="translate(-1.98)"/><path d="M303.9,169c0-2.55,0-4.55-.21-6.55h3.91l.25,4h.09a9,9,0,0,1,8-4.5c3.35,0,8.55,2,8.55,10.3v14.45h-4.4v-14c0-3.9-1.45-7.2-5.6-7.2a6.35,6.35,0,0,0-5.9,4.5,6.54,6.54,0,0,0-.3,2.05v14.6h-4.4Z" transform="translate(-1.98)"/><path d="M334.19,158.38a2.61,2.61,0,0,1-2.64-2.7,2.73,2.73,0,1,1,2.7,2.7Zm-2.09,28.3v-24.2h4.4v24.2Z" transform="translate(-1.98)"/><path d="M348.69,173.58h.1c.61-.85,1.4-1.9,2.11-2.75l7.15-8.35h5.25l-9.36,10,10.66,14.25h-5.35l-8.31-11.6-2.25,2.5v9.1h-4.4v-35.5h4.4Z" transform="translate(-1.98)"/><path class="cls-1" d="M24.13,82.52a53.15,53.15,0,0,1-8.52-.42V52.82h8.16c11.11,0,20.14,4.29,20.14,14.71,0,11.1-9.38,15-19.78,15M15.61,18.09a44.23,44.23,0,0,1,9.09-.67c10.24,0,16.81,3.73,16.81,12.36,0,7.51-6.29,12.9-17.26,12.9H15.61ZM41.23,46.88v-.25c9-3.33,14.11-10.46,14.11-18.36a18.12,18.12,0,0,0-8.1-15.45c-5.7-3.93-12.58-5.67-23.79-5.67A120,120,0,0,0,2,8.9v83A141.21,141.21,0,0,0,20.14,93c14.78,0,24.51-2.62,30.49-7.89A22.27,22.27,0,0,0,58.4,67.89c0-12-8.61-18.84-17.17-21" transform="translate(-1.98)"/><path class="cls-2" d="M107,71.13a11.14,11.14,0,0,1-.55,3.42,13.45,13.45,0,0,1-13,9c-5.16,0-9.37-3-9.37-9.43C84.1,63,95.71,61.69,107,61.94ZM120.4,55.3C120.4,39.83,115.19,30,96,30,87.15,30,79.5,32.4,74.8,35.34l2.82,9a31.53,31.53,0,0,1,16.16-4.51c11.38,0,12.94,5.55,12.91,11.92v1.09c-22.86-.13-36.27,6.06-36.27,22.84,0,9.08,6.65,17.88,18.92,17.88,8.17,0,14.6-3.71,18.21-8.46h.38l.95,7.08h12.44a93,93,0,0,1-.92-14.61V55.3" transform="translate(-1.98)"/><path class="cls-3" d="M269,43.07h-.5L268,31.34H256c.37,5.56.5,11.53.5,19.36V92.16h13.7V60.33a26.26,26.26,0,0,1,.51-4.9c1.36-7.41,6.61-12.58,14.14-12.58a19.7,19.7,0,0,1,4.23.45v-13a14.58,14.58,0,0,0-3.45-.38c-6.83,0-13.78,4.66-16.69,13.11" transform="translate(-1.98)"/><path class="cls-4" d="M311.29,0a8,8,0,0,0-8.38,8.22,7.89,7.89,0,0,0,8.2,8.08c5.25,0,8.57-3.58,8.51-8.08A8,8,0,0,0,311.29,0m-6.92,92.16H318.2V31.34H304.37Z" transform="translate(-1.98)"/><path class="cls-5" d="M361,56.2c-7.8-2.87-11-4.87-11-9.17,0-4,3.24-7.09,9.12-7.09a25.92,25.92,0,0,1,12.71,3.5l2.91-9.81A33.67,33.67,0,0,0,359.1,30c-13.72,0-22.18,8.25-22.23,18.64,0,7.17,5,13.47,16.49,17.54,7.75,2.74,10.48,5.18,10.48,9.72,0,4.38-3.28,7.61-10.51,7.61a32.21,32.21,0,0,1-15.23-4.38l-2.91,10.12a37.51,37.51,0,0,0,18,4.33c15.49,0,24-8,24-18.83,0-9-5.29-14.53-16.13-18.51" transform="translate(-1.98)"/><path class="cls-6" d="M162.08,82.21c-6,0-8-4-8-11.45V.93H140.62V72c0,7.69,1.4,13.12,4.57,16.56,2.82,3.06,7.31,5,12.76,5a30.49,30.49,0,0,0,10.62-1.63l-.34-10.45a19.65,19.65,0,0,1-6.15.75" transform="translate(-1.98)"/><path class="cls-7" d="M205,67.85c-8.5,0-12.75-6-12.75-14.34,0-7.09,4.7-13.59,12.29-13.59,9,0,13.36,6.5,13.36,14,0,7.79-4.86,13.89-12.9,13.89M208.84,94c9.85-.19,14.77,2.69,14.77,9.77,0,5.27-6.49,9.33-17.62,9.33-12.29,0-17.83-4.55-17.83-10s2.62-7.26,5.58-8.94c0,0,7.35,0,15.1-.17m16-54.21h-.73c-.65-1.94-4.74-5.66-7.41-7.15s-7-2.62-12.26-2.62c-16.11,0-24.82,10.9-24.82,23.57,0,8.39,2.93,15.71,9.95,19.43-5.51,3.71-7.59,6.94-7.59,10.15,0,3,.85,6.3,4,8.1-6.75,3-9.85,6.78-9.85,14.08,0,9.86,9,17.84,28.58,17.84,24.1,0,32.71-10.4,32.71-20,0-14-9.94-18.06-26.56-17.85-10.5.14-16.58,0-16.58-4.37,0-2.47.84-3.72,2.86-5.4a23.39,23.39,0,0,0,8.53,1.6c14.87,0,23.63-8.12,23.63-22.31a28.67,28.67,0,0,0-.57-7.18,13.49,13.49,0,0,1,10.56-4.75,19.6,19.6,0,0,1,4.22.45v-13a14,14,0,0,0-3.44-.38c-5.88,0-11.84,3.45-15.24,9.79" transform="translate(-1.98)"/><path class="cls-8" d="M423.69,41.69V31.35H408.62V16.11l-13.42,4V31.35h-9V41.69h9V72c0,7.69,1.39,13.12,4.57,16.56,2.81,3.06,7.3,5,12.75,5a30.56,30.56,0,0,0,10.63-1.63l-.35-10.45a19.61,19.61,0,0,1-6.15.75c-6,0-8-4-8-11.46V41.69h15.07" transform="translate(-1.98)"/></svg>